G04*
G04 #@! TF.GenerationSoftware,Altium Limited,Altium Designer,25.5.2 (35)*
G04*
G04 Layer_Physical_Order=2*
G04 Layer_Color=16711680*
%FSLAX25Y25*%
%MOIN*%
G70*
G04*
G04 #@! TF.SameCoordinates,D32F303B-4295-4952-9886-13C3A09D28A0*
G04*
G04*
G04 #@! TF.FilePolarity,Positive*
G04*
G01*
G75*
%ADD10C,0.01000*%
%ADD40C,0.07087*%
%ADD41C,0.06693*%
%ADD42R,0.06693X0.06693*%
%ADD43R,0.06693X0.06200*%
%ADD44R,0.06200X0.06693*%
%ADD45C,0.02400*%
%ADD46C,0.02402*%
D10*
X291246Y208500D02*
G03*
X300939Y208500I4846J0D01*
G01*
X386500Y225000D02*
X386592Y224908D01*
Y221000D02*
Y224908D01*
X284000Y199000D02*
X289000D01*
X278000Y234000D02*
X281700Y230300D01*
Y196392D02*
X283802Y194290D01*
X281700Y196392D02*
Y230300D01*
X364000Y245000D02*
X367700Y241300D01*
X386850D01*
X309500Y225500D02*
X314092Y225500D01*
X333033Y244000D01*
X308500Y224500D02*
X309500Y225500D01*
X333033Y244000D02*
X350592D01*
X221500Y238460D02*
X253553D01*
X264092Y249000D01*
X264092D01*
X269092Y254000D01*
X287092D01*
X228040Y202000D02*
X260500D01*
X221500Y208539D02*
X228040Y202000D01*
X269092Y244000D02*
X279092D01*
X260500Y202000D02*
X265000Y206500D01*
X301092Y183500D02*
X301592Y184000D01*
X284500Y183500D02*
X301092D01*
X279500Y188500D02*
X284500Y183500D01*
X279500Y188500D02*
Y205914D01*
X278914Y206500D02*
X279500Y205914D01*
X265000Y206500D02*
X278914D01*
X221500Y208539D02*
X221500D01*
X283802Y194290D02*
X321302D01*
X269092Y234000D02*
X278000D01*
X279092Y244000D02*
X287000Y236092D01*
Y211192D02*
X288399Y209793D01*
X287000Y211192D02*
Y236092D01*
X288399Y209793D02*
X288692Y209500D01*
X290660D01*
X291092Y214908D02*
X296092Y209908D01*
X287092Y254000D02*
X291092Y250000D01*
Y214908D02*
Y250000D01*
X296092Y208500D02*
Y209908D01*
X290660Y209500D02*
X291246Y208914D01*
X304025Y212000D02*
X323592D01*
X300939Y208914D02*
X304025Y212000D01*
X323592D02*
X351592Y184000D01*
X300939Y208500D02*
X300939Y208914D01*
X291246Y208500D02*
Y208914D01*
X221500Y238461D02*
X221500Y238460D01*
X321302Y194290D02*
X331592Y184000D01*
X380092Y214500D02*
X386592Y221000D01*
X368092Y214500D02*
X380092D01*
X350592Y232000D02*
X368092Y214500D01*
X350592Y232000D02*
Y244000D01*
X391592Y234000D02*
X396592Y229000D01*
X391592Y234000D02*
Y240500D01*
X388592Y243500D02*
X391592Y240500D01*
X370092Y243500D02*
X388592D01*
X363592Y250000D02*
X370092Y243500D01*
X389471Y226100D02*
X396592Y219000D01*
X389471Y226100D02*
Y238700D01*
X386850Y241300D02*
X389471Y238700D01*
X396592Y239000D02*
Y239500D01*
X390092Y246000D02*
X396592Y239500D01*
X371092Y246000D02*
X390092D01*
X363592Y253500D02*
X371092Y246000D01*
X363592Y256500D02*
X365592D01*
X373092Y249000D01*
X396592D01*
X334092Y300000D02*
Y306000D01*
X322492Y288400D02*
X334092Y300000D01*
X322492Y274830D02*
Y288400D01*
X363592Y259500D02*
X378092D01*
X380092Y257500D01*
X395092D01*
X396592Y259000D01*
X329092Y275000D02*
Y276000D01*
X354092Y301000D01*
Y306000D01*
D40*
X221500Y238460D02*
D03*
Y208540D02*
D03*
D41*
X269092Y234000D02*
D03*
X331592Y184000D02*
D03*
X269092Y244000D02*
D03*
X351592Y184000D02*
D03*
X269092Y254000D02*
D03*
X296092Y208500D02*
D03*
Y288500D02*
D03*
Y278500D02*
D03*
Y268500D02*
D03*
Y258500D02*
D03*
Y248500D02*
D03*
Y238500D02*
D03*
Y228500D02*
D03*
Y218500D02*
D03*
X396592Y199000D02*
D03*
Y209000D02*
D03*
Y219000D02*
D03*
Y229000D02*
D03*
Y239000D02*
D03*
Y249000D02*
D03*
Y259000D02*
D03*
Y269000D02*
D03*
Y279000D02*
D03*
X301592Y184000D02*
D03*
X311592D02*
D03*
X321592D02*
D03*
X341592D02*
D03*
X361592D02*
D03*
X371592D02*
D03*
X381592D02*
D03*
X394092Y306000D02*
D03*
X384092D02*
D03*
X374092D02*
D03*
X364092D02*
D03*
X354092D02*
D03*
X344092D02*
D03*
X334092D02*
D03*
X324092D02*
D03*
X314092D02*
D03*
D42*
X269092Y224000D02*
D03*
D43*
X296092Y198500D02*
D03*
X396592Y289000D02*
D03*
D44*
X391592Y184000D02*
D03*
X304092Y306000D02*
D03*
D45*
X386500Y225000D02*
D03*
X289000Y199000D02*
D03*
X284000D02*
D03*
X364000Y245000D02*
D03*
X308500Y224500D02*
D03*
X350592Y244000D02*
D03*
X363592Y256500D02*
D03*
Y253500D02*
D03*
Y250000D02*
D03*
Y259500D02*
D03*
D46*
X329092Y275000D02*
D03*
X322494Y274833D02*
D03*
M02*
