G04*
G04 #@! TF.GenerationSoftware,Altium Limited,Altium Designer,25.5.2 (35)*
G04*
G04 Layer_Color=16711935*
%FSLAX25Y25*%
%MOIN*%
G70*
G04*
G04 #@! TF.SameCoordinates,D32F303B-4295-4952-9886-13C3A09D28A0*
G04*
G04*
G04 #@! TF.FilePolarity,Negative*
G04*
G01*
G75*
%ADD31C,0.07887*%
%ADD32C,0.07093*%
%ADD33R,0.07093X0.07093*%
%ADD34R,0.07093X0.06600*%
%ADD35R,0.06600X0.07093*%
%ADD36C,0.03200*%
%ADD37C,0.03202*%
D31*
X221500Y238460D02*
D03*
Y208540D02*
D03*
D32*
X269092Y234000D02*
D03*
X331592Y184000D02*
D03*
X269092Y244000D02*
D03*
X351592Y184000D02*
D03*
X269092Y254000D02*
D03*
X296092Y208500D02*
D03*
Y288500D02*
D03*
Y278500D02*
D03*
Y268500D02*
D03*
Y258500D02*
D03*
Y248500D02*
D03*
Y238500D02*
D03*
Y228500D02*
D03*
Y218500D02*
D03*
X396592Y199000D02*
D03*
Y209000D02*
D03*
Y219000D02*
D03*
Y229000D02*
D03*
Y239000D02*
D03*
Y249000D02*
D03*
Y259000D02*
D03*
Y269000D02*
D03*
Y279000D02*
D03*
X301592Y184000D02*
D03*
X311592D02*
D03*
X321592D02*
D03*
X341592D02*
D03*
X361592D02*
D03*
X371592D02*
D03*
X381592D02*
D03*
X394092Y306000D02*
D03*
X384092D02*
D03*
X374092D02*
D03*
X364092D02*
D03*
X354092D02*
D03*
X344092D02*
D03*
X334092D02*
D03*
X324092D02*
D03*
X314092D02*
D03*
D33*
X269092Y224000D02*
D03*
D34*
X296092Y198500D02*
D03*
X396592Y289000D02*
D03*
D35*
X391592Y184000D02*
D03*
X304092Y306000D02*
D03*
D36*
X386500Y225000D02*
D03*
X289000Y199000D02*
D03*
X284000D02*
D03*
X364000Y245000D02*
D03*
X308500Y224500D02*
D03*
X350592Y244000D02*
D03*
X363592Y256500D02*
D03*
Y253500D02*
D03*
Y250000D02*
D03*
Y259500D02*
D03*
D37*
X329092Y275000D02*
D03*
X322494Y274833D02*
D03*
M02*
