G04*
G04 #@! TF.GenerationSoftware,Altium Limited,Altium Designer,25.5.2 (35)*
G04*
G04 Layer_Physical_Order=1*
G04 Layer_Color=255*
%FSLAX25Y25*%
%MOIN*%
G70*
G04*
G04 #@! TF.SameCoordinates,D32F303B-4295-4952-9886-13C3A09D28A0*
G04*
G04*
G04 #@! TF.FilePolarity,Positive*
G04*
G01*
G75*
%ADD10C,0.01000*%
%ADD15O,0.01654X0.06575*%
%ADD16O,0.06575X0.01654*%
%ADD17R,0.07480X0.05906*%
%ADD18R,0.11024X0.04331*%
%ADD19R,0.03150X0.03543*%
%ADD20R,0.03543X0.03150*%
%ADD21R,0.09449X0.07480*%
%ADD38R,0.03175X0.03402*%
%ADD39R,0.03402X0.03175*%
%ADD40C,0.07087*%
%ADD41C,0.06693*%
%ADD42R,0.06693X0.06693*%
%ADD43R,0.06693X0.06200*%
%ADD44R,0.06200X0.06693*%
%ADD45C,0.02400*%
%ADD46C,0.02402*%
D10*
X386500Y230652D02*
X386592Y230744D01*
X386500Y225000D02*
Y230652D01*
X296092Y198500D02*
X302092D01*
X289879D02*
X296092D01*
X289379Y199000D02*
X289879Y198500D01*
X286700Y199953D02*
X295247Y208500D01*
X286700Y169732D02*
Y199953D01*
Y169732D02*
X292932Y163500D01*
X295247Y208500D02*
X296092D01*
X289000Y199000D02*
X289379D01*
X270092Y219500D02*
X284000Y205592D01*
Y199000D02*
Y205592D01*
X357671Y247000D02*
X362458D01*
X363732Y245268D02*
X364000Y245000D01*
X362458Y247000D02*
X363732Y245726D01*
Y245268D02*
Y245726D01*
X308336Y218500D02*
X308500Y218664D01*
Y224500D01*
X305500Y163500D02*
X316110Y174110D01*
X326262D01*
X301558Y163500D02*
X305500D01*
X326262Y174110D02*
Y204670D01*
X326257Y174110D02*
X335699D01*
X341749Y168060D01*
X293592Y326970D02*
X301522D01*
X298593Y161439D02*
Y180635D01*
X330382Y326966D02*
X352021D01*
X301521D02*
X330382D01*
X346997Y164000D02*
X347002D01*
X296092Y183136D02*
X298593Y180635D01*
X347002Y164000D02*
X347002Y164000D01*
X298593Y161439D02*
X299804Y160228D01*
X322052Y163500D02*
Y163500D01*
X347002Y164000D02*
X351844D01*
X341002Y158000D02*
X347002Y164000D01*
X322052Y163500D02*
X322055D01*
X315436D02*
X322052D01*
Y160040D02*
Y163500D01*
X269092Y220500D02*
X270092Y219500D01*
X269092Y220500D02*
Y224000D01*
X331592Y184000D02*
X331942Y184350D01*
Y224421D01*
X312513Y250150D02*
X320942D01*
X324092Y247000D01*
Y235500D02*
Y247000D01*
X314092Y225500D02*
X324092Y235500D01*
X314092Y225000D02*
Y225500D01*
X313848Y218500D02*
X314092Y225000D01*
X310132Y250150D02*
X312512D01*
X302592Y257690D02*
X310132Y250150D01*
X302592Y257690D02*
Y268780D01*
X297872Y273500D02*
X302592Y268780D01*
X283042Y273500D02*
X297872D01*
X283042D02*
Y316420D01*
X293592Y326970D01*
X302092Y198500D02*
X313848Y210256D01*
Y218500D01*
X322052Y160040D02*
X324092Y158000D01*
X341002D01*
X324626Y283500D02*
Y294986D01*
X329638Y299998D01*
Y309269D01*
X333985Y313616D01*
Y326966D01*
X296092Y183136D02*
Y198500D01*
X299804Y160228D02*
X312164D01*
X315436Y163500D01*
X338242Y197350D02*
Y224421D01*
Y197350D02*
X351592Y184000D01*
X305092Y218500D02*
X308336D01*
X296092Y209500D02*
X305092Y218500D01*
X296092Y208500D02*
Y209500D01*
X350592Y244000D02*
X357671Y243800D01*
X386592Y230740D02*
X390332D01*
X391092Y231500D01*
Y258760D01*
X390092Y259760D02*
X391092Y258760D01*
X386592Y259760D02*
X390092D01*
X292932Y163500D02*
X295626D01*
X384092Y250500D02*
X385530D01*
X386592Y251562D01*
X374592Y251178D02*
X375270Y250500D01*
X384092D01*
X386592Y251562D02*
Y254244D01*
X357671Y237551D02*
X358091Y237131D01*
X367453D01*
X368760Y235824D01*
X374592D01*
X377508D01*
X380423D01*
X380855Y236256D01*
X386592D01*
X341749Y168060D02*
X383340D01*
X341749Y163500D02*
Y168060D01*
X335130Y163500D02*
X341749D01*
X383340Y164000D02*
Y168060D01*
X308735Y318340D02*
Y321034D01*
X301521Y318340D02*
Y321034D01*
X291239Y308058D02*
X301521Y318340D01*
X291239Y283353D02*
Y308058D01*
Y283353D02*
X296092Y278500D01*
X304900Y269692D01*
Y258714D02*
Y269692D01*
Y258714D02*
X310315Y253299D01*
X312513D01*
X303891Y240701D02*
X312513D01*
X296092Y248500D02*
X303891Y240701D01*
X297041Y237551D02*
X312513D01*
X296092Y238500D02*
X297041Y237551D01*
X301994Y234402D02*
X312513D01*
X296092Y228500D02*
X301994Y234402D01*
X308844Y231252D02*
X312513D01*
X296092Y218500D02*
X308844Y231252D01*
X357671D02*
X389923Y199000D01*
X396592D01*
X357671Y234402D02*
X360366D01*
X385768Y209000D01*
X396592D01*
X335092Y190500D02*
Y224421D01*
Y190500D02*
X341592Y184000D01*
X341391Y204201D02*
X361592Y184000D01*
X341391Y204201D02*
Y224421D01*
X344541Y211051D02*
X371592Y184000D01*
X344541Y211051D02*
Y224421D01*
X347690Y217902D02*
X381592Y184000D01*
X347690Y217902D02*
Y224421D01*
X335092Y269579D02*
Y277000D01*
X364092Y306000D01*
X352021Y318340D02*
X354092Y316269D01*
Y306000D02*
Y316269D01*
X352021Y318340D02*
Y321034D01*
X344806Y306714D02*
Y321034D01*
X344092Y306000D02*
X344806Y306714D01*
X322494Y269579D02*
Y274833D01*
X337592Y309500D02*
Y321034D01*
X334092Y306000D02*
X337592Y309500D01*
X319344Y269579D02*
Y301252D01*
X324092Y306000D01*
X323164Y318340D02*
Y321034D01*
X314092Y309268D02*
X323164Y318340D01*
X314092Y306000D02*
Y309268D01*
X315949Y318340D02*
Y321034D01*
X304092Y306000D02*
X308299D01*
X330382Y316290D02*
Y321030D01*
X324092Y310000D02*
X330382Y316290D01*
X324092Y306000D02*
Y310000D01*
X396092Y278500D02*
X396592Y279000D01*
X386462Y278500D02*
X396092D01*
X377542Y269580D02*
X386462Y278500D01*
X350842Y269580D02*
X377542D01*
X357672Y262750D02*
X388592Y264000D01*
X394592Y269000D01*
X396592D01*
X357672Y240700D02*
X363292D01*
X366592Y244000D01*
Y250000D01*
X367772Y251180D01*
X374592D01*
X357672Y256450D02*
X363592Y256500D01*
X357671Y253299D02*
X363391D01*
X363592Y253500D01*
X357671Y250150D02*
X363442D01*
X363592Y250000D01*
X357672Y259600D02*
X363592Y259500D01*
X350842Y220000D02*
Y224420D01*
Y220000D02*
X351092D01*
X363592Y207500D01*
X373592D01*
X391592Y189500D01*
Y184000D02*
Y189500D01*
X328792Y207200D02*
Y224420D01*
X326262Y204670D02*
X328792Y207200D01*
X322492Y209400D02*
Y224420D01*
X316092Y203000D02*
X322492Y209400D01*
X316092Y188500D02*
Y203000D01*
X311592Y184000D02*
X316092Y188500D01*
X319342Y210250D02*
Y224420D01*
X312092Y203000D02*
X319342Y210250D01*
X312092Y191000D02*
Y203000D01*
X301592Y184000D02*
X312092Y191000D01*
X312512Y262750D02*
X313592D01*
Y306000D01*
X314092D01*
X325642Y269580D02*
Y276550D01*
X327592Y278500D01*
Y289500D01*
X344092Y306000D01*
X328793Y269579D02*
Y274701D01*
X329092Y275000D01*
X330562Y279730D02*
Y283500D01*
Y279730D02*
X331942Y278350D01*
Y269580D02*
Y278350D01*
X387082Y288500D02*
X396592D01*
X373582Y275000D02*
X387082Y288500D01*
X350092Y275000D02*
X373582D01*
X347692Y272600D02*
X350092Y275000D01*
X347692Y269580D02*
Y272600D01*
X344542Y269580D02*
X344592Y273500D01*
X351092Y280000D01*
X368092D01*
X394092Y306000D01*
X341392Y269580D02*
Y274300D01*
X351092Y284000D01*
X362092D01*
X384092Y306000D01*
X338242Y269580D02*
X338592Y275000D01*
Y275500D01*
X352092Y289000D01*
X357092D01*
X374092Y306000D01*
X306222Y243850D02*
X312512D01*
X296092Y258500D02*
X306222Y243850D01*
X310092Y247000D02*
X312512D01*
X296092Y268500D02*
X300702Y263890D01*
Y255890D02*
Y263890D01*
Y255890D02*
X304092Y252500D01*
Y251000D02*
Y252500D01*
Y251000D02*
X308092Y247000D01*
X312513D01*
X296092Y287000D02*
Y288500D01*
Y287000D02*
X306512Y276580D01*
Y260150D02*
Y276580D01*
Y260150D02*
X310212Y256450D01*
X312512D01*
X308302Y310690D02*
X315952Y318340D01*
X308302Y306000D02*
Y310690D01*
X309952Y259600D02*
X312512D01*
X308122Y261430D02*
X309952Y259600D01*
X308122Y261430D02*
Y306000D01*
X308302D01*
X307388Y318340D02*
X308735D01*
X296092Y307044D02*
X307388Y318340D01*
X296092Y288500D02*
Y307044D01*
X321592Y184000D02*
Y204000D01*
X325642Y208050D01*
Y224420D01*
D15*
X331943Y224421D02*
D03*
X338242D02*
D03*
X319344D02*
D03*
X322494D02*
D03*
X325643D02*
D03*
X328793D02*
D03*
X335092D02*
D03*
X341391D02*
D03*
X344541D02*
D03*
X347691D02*
D03*
X350840D02*
D03*
Y269579D02*
D03*
X347691D02*
D03*
X344541D02*
D03*
X341391D02*
D03*
X338242D02*
D03*
X335092D02*
D03*
X331943D02*
D03*
X328793D02*
D03*
X325643D02*
D03*
X322494D02*
D03*
X319344D02*
D03*
D16*
X312513Y250150D02*
D03*
X357671Y243850D02*
D03*
Y231252D02*
D03*
Y234402D02*
D03*
Y237551D02*
D03*
Y240701D02*
D03*
Y247000D02*
D03*
Y250150D02*
D03*
Y253299D02*
D03*
Y256449D02*
D03*
Y259598D02*
D03*
Y262748D02*
D03*
X312513D02*
D03*
Y259598D02*
D03*
Y256449D02*
D03*
Y253299D02*
D03*
Y247000D02*
D03*
Y243850D02*
D03*
Y240701D02*
D03*
Y237551D02*
D03*
Y234402D02*
D03*
Y231252D02*
D03*
D17*
X351844Y164000D02*
D03*
X383340D02*
D03*
D18*
X322055Y163500D02*
D03*
X335130D02*
D03*
D19*
X313848Y218500D02*
D03*
X308337D02*
D03*
D20*
X386592Y230745D02*
D03*
Y259755D02*
D03*
Y254244D02*
D03*
Y236256D02*
D03*
D21*
X374592Y235823D02*
D03*
Y251177D02*
D03*
D38*
X324627Y283500D02*
D03*
X295627Y163500D02*
D03*
X330558Y283500D02*
D03*
X301558Y163500D02*
D03*
D39*
X352022Y326965D02*
D03*
X344802D02*
D03*
X337592D02*
D03*
X330382D02*
D03*
X323162D02*
D03*
X315952D02*
D03*
X308732D02*
D03*
X301522D02*
D03*
Y321035D02*
D03*
X308732D02*
D03*
X315952D02*
D03*
X323162D02*
D03*
X330382D02*
D03*
X337592D02*
D03*
X344802D02*
D03*
X352022D02*
D03*
D40*
X221500Y238460D02*
D03*
Y208540D02*
D03*
D41*
X269092Y234000D02*
D03*
X331592Y184000D02*
D03*
X269092Y244000D02*
D03*
X351592Y184000D02*
D03*
X269092Y254000D02*
D03*
X296092Y208500D02*
D03*
Y288500D02*
D03*
Y278500D02*
D03*
Y268500D02*
D03*
Y258500D02*
D03*
Y248500D02*
D03*
Y238500D02*
D03*
Y228500D02*
D03*
Y218500D02*
D03*
X396592Y199000D02*
D03*
Y209000D02*
D03*
Y219000D02*
D03*
Y229000D02*
D03*
Y239000D02*
D03*
Y249000D02*
D03*
Y259000D02*
D03*
Y269000D02*
D03*
Y279000D02*
D03*
X301592Y184000D02*
D03*
X311592D02*
D03*
X321592D02*
D03*
X341592D02*
D03*
X361592D02*
D03*
X371592D02*
D03*
X381592D02*
D03*
X394092Y306000D02*
D03*
X384092D02*
D03*
X374092D02*
D03*
X364092D02*
D03*
X354092D02*
D03*
X344092D02*
D03*
X334092D02*
D03*
X324092D02*
D03*
X314092D02*
D03*
D42*
X269092Y224000D02*
D03*
D43*
X296092Y198500D02*
D03*
X396592Y289000D02*
D03*
D44*
X391592Y184000D02*
D03*
X304092Y306000D02*
D03*
D45*
X386500Y225000D02*
D03*
X289000Y199000D02*
D03*
X284000D02*
D03*
X364000Y245000D02*
D03*
X308500Y224500D02*
D03*
X350592Y244000D02*
D03*
X363592Y256500D02*
D03*
Y253500D02*
D03*
Y250000D02*
D03*
Y259500D02*
D03*
D46*
X329092Y275000D02*
D03*
X322494Y274833D02*
D03*
M02*
