G04*
G04 #@! TF.GenerationSoftware,Altium Limited,Altium Designer,25.5.2 (35)*
G04*
G04 Layer_Color=65535*
%FSLAX25Y25*%
%MOIN*%
G70*
G04*
G04 #@! TF.SameCoordinates,D32F303B-4295-4952-9886-13C3A09D28A0*
G04*
G04*
G04 #@! TF.FilePolarity,Positive*
G04*
G01*
G75*
%ADD10C,0.01000*%
%ADD11C,0.01181*%
%ADD12C,0.00600*%
%ADD13C,0.00709*%
%ADD14C,0.00800*%
G36*
X336586Y159352D02*
X334555D01*
Y159860D01*
X336586D01*
Y159352D01*
D02*
G37*
G36*
X321943Y159860D02*
X322705D01*
Y159352D01*
X321943D01*
Y157913D01*
X321435D01*
Y159352D01*
X320673D01*
Y159860D01*
X321435D01*
Y161299D01*
X321943D01*
Y159860D01*
D02*
G37*
D10*
X226500Y223499D02*
G03*
X226500Y223499I-5000J0D01*
G01*
X245122D02*
G03*
X245122Y223499I-23622J0D01*
G01*
X389409Y261314D02*
G03*
X388189Y262533I-1220J0D01*
G01*
X385040D02*
G03*
X383820Y261314I-0J-1220D01*
G01*
X388166Y251528D02*
G03*
X389386Y252747I0J1220D01*
G01*
X383797D02*
G03*
X385017Y251528I1220J0D01*
G01*
X383775Y229186D02*
G03*
X384995Y227966I1220J0D01*
G01*
X388145D02*
G03*
X389365Y229186I0J1220D01*
G01*
X385018Y238972D02*
G03*
X383798Y237753I-0J-1220D01*
G01*
X389388D02*
G03*
X388168Y238972I-1220J0D01*
G01*
X306779Y221317D02*
G03*
X305559Y220097I0J-1220D01*
G01*
Y216947D02*
G03*
X306779Y215727I1220J-0D01*
G01*
X316565Y220074D02*
G03*
X315345Y221294I-1220J0D01*
G01*
Y215705D02*
G03*
X316565Y216924I0J1220D01*
G01*
X385016Y251528D02*
X388166D01*
X389386Y252747D02*
Y255897D01*
X383797Y252747D02*
Y255897D01*
X389409Y258164D02*
Y261314D01*
X385040Y262533D02*
X388189D01*
X383820Y258164D02*
Y261314D01*
X385018Y238972D02*
X388168D01*
X383798Y234603D02*
Y237753D01*
X389388Y234603D02*
Y237753D01*
X383775Y229187D02*
Y232336D01*
X384995Y227967D02*
X388145D01*
X389365Y229187D02*
Y232336D01*
X316565Y216924D02*
Y220074D01*
X312196Y221294D02*
X315345D01*
X312196Y215705D02*
X315345D01*
X306779Y221317D02*
X309928D01*
X305559Y216947D02*
Y220097D01*
X306779Y215728D02*
X309928D01*
X291092Y203465D02*
X301092D01*
Y192713D02*
Y294500D01*
X291092Y192713D02*
X301092D01*
X291092D02*
Y294287D01*
X301092D01*
X391592Y284035D02*
X401592D01*
X391592Y193000D02*
Y294787D01*
X401592D01*
Y193213D02*
Y294787D01*
X391592Y193213D02*
X401592D01*
X386627Y179000D02*
Y189000D01*
X295592D02*
X397380D01*
Y179000D02*
Y189000D01*
X295805Y179000D02*
X397380D01*
X295805D02*
Y189000D01*
X309057Y301000D02*
Y311000D01*
X298305Y301000D02*
X400092D01*
X298305D02*
Y311000D01*
X399880D01*
Y301000D02*
Y311000D01*
X264092Y259827D02*
X274092D01*
X264092Y218173D02*
Y259827D01*
Y229093D02*
X274092D01*
Y218173D02*
Y259827D01*
X264092Y218173D02*
X274092D01*
X364132Y161070D02*
X372132D01*
X364132D02*
Y167070D01*
X372132D01*
Y161070D02*
Y167070D01*
X356321Y170566D02*
X379943D01*
X356321Y157574D02*
X379943D01*
Y160137D01*
Y167863D02*
Y170566D01*
X356321Y167683D02*
Y170566D01*
Y157574D02*
Y160317D01*
X364500Y327498D02*
Y321500D01*
X368499D01*
X374497Y327498D02*
X370498D01*
Y321500D01*
X374497D01*
X370498Y324499D02*
X372497D01*
X376496Y321500D02*
Y327498D01*
X378496Y325499D01*
X380495Y327498D01*
Y321500D01*
X385493Y327498D02*
X383494D01*
X382494Y326498D01*
Y322500D01*
X383494Y321500D01*
X385493D01*
X386493Y322500D01*
Y326498D01*
X385493Y327498D01*
X388492Y321500D02*
Y327498D01*
X392491Y321500D01*
Y327498D01*
D11*
X316982Y224559D02*
G03*
X316982Y224559I-591J0D01*
G01*
X319260Y230577D02*
G03*
X319260Y230577I-591J0D01*
G01*
D12*
X304123Y325678D02*
Y329453D01*
X298921D02*
X304123D01*
X298921Y325678D02*
Y329453D01*
X304123Y318547D02*
Y322322D01*
X298921Y318547D02*
X304123D01*
X298921D02*
Y322322D01*
X311333Y325678D02*
Y329453D01*
X306131D02*
X311333D01*
X306131Y325678D02*
Y329453D01*
X311333Y318547D02*
Y322322D01*
X306131Y318547D02*
X311333D01*
X306131D02*
Y322322D01*
X318553Y325678D02*
Y329453D01*
X313351D02*
X318553D01*
X313351Y325678D02*
Y329453D01*
X318553Y318547D02*
Y322322D01*
X313351Y318547D02*
X318553D01*
X313351D02*
Y322322D01*
X325763Y325678D02*
Y329453D01*
X320561D02*
X325763D01*
X320561Y325678D02*
Y329453D01*
X325763Y318547D02*
Y322322D01*
X320561Y318547D02*
X325763D01*
X320561D02*
Y322322D01*
X332983Y325678D02*
Y329453D01*
X327781D02*
X332983D01*
X327781Y325678D02*
Y329453D01*
X332983Y318547D02*
Y322322D01*
X327781Y318547D02*
X332983D01*
X327781D02*
Y322322D01*
X340193Y325678D02*
Y329453D01*
X334991D02*
X340193D01*
X334991Y325678D02*
Y329453D01*
X340193Y318547D02*
Y322322D01*
X334991Y318547D02*
X340193D01*
X334991D02*
Y322322D01*
X347403Y325678D02*
Y329453D01*
X342201D02*
X347403D01*
X342201Y325678D02*
Y329453D01*
X347403Y318547D02*
Y322322D01*
X342201Y318547D02*
X347403D01*
X342201D02*
Y322322D01*
X354623Y325678D02*
Y329453D01*
X349421D02*
X354623D01*
X349421Y325678D02*
Y329453D01*
X354623Y318547D02*
Y322322D01*
X349421Y318547D02*
X354623D01*
X349421D02*
Y322322D01*
X322139Y286101D02*
X325914D01*
X322139Y280899D02*
Y286101D01*
Y280899D02*
X325914D01*
X329270Y286101D02*
X333045D01*
Y280899D02*
Y286101D01*
X329270Y280899D02*
X333045D01*
X300270Y160899D02*
X304045D01*
Y166101D01*
X300270D02*
X304045D01*
X293139Y160899D02*
X296914D01*
X293139D02*
Y166101D01*
X296914D01*
X337394Y154735D02*
Y161108D01*
X323551Y154735D02*
X337394D01*
X319865Y158421D02*
X323551Y154735D01*
X319865Y158421D02*
Y161108D01*
X337394Y165891D02*
Y172264D01*
X323551D02*
X337394D01*
X319865Y168578D02*
X323551Y172264D01*
X319865Y165891D02*
Y168578D01*
X315107Y264325D02*
Y266985D01*
X317767D01*
X355077Y264325D02*
Y266985D01*
X352417D02*
X355077D01*
X315107Y227015D02*
Y229675D01*
Y227015D02*
X317767D01*
X355077D02*
Y229675D01*
X352417Y227015D02*
X355077D01*
X316701Y228609D02*
Y265391D01*
X353484D01*
Y228609D02*
Y265391D01*
X316701Y228609D02*
X353484D01*
X212051Y206000D02*
Y209333D01*
X210385Y207667D02*
X213717D01*
X214702Y197585D02*
X214612Y193088D01*
X216861Y193043D01*
X217625Y193778D01*
X217640Y194527D01*
X216906Y195292D01*
X214657Y195337D01*
X216906Y195292D01*
X217670Y196026D01*
X217685Y196776D01*
X216951Y197541D01*
X214702Y197585D01*
X219199Y197496D02*
X219125Y193747D01*
X219859Y192983D01*
X221358Y192953D01*
X222123Y193688D01*
X222198Y197436D01*
X223697Y197406D02*
X226696Y197346D01*
X226681Y196596D01*
X223622Y193658D01*
X223607Y192908D01*
X226606Y192848D01*
X228105Y192818D02*
X229604Y192788D01*
X228854Y192803D01*
X228944Y197301D01*
X228180Y196566D01*
X384085Y268816D02*
X383040Y268632D01*
X382180Y267404D01*
X382365Y266360D01*
X384821Y264639D01*
X385865Y264824D01*
X386725Y266052D01*
X386541Y267096D01*
X388016Y267895D02*
X388876Y269123D01*
X388446Y268509D01*
X384761Y271089D01*
X384945Y270045D01*
X384591Y221499D02*
X383841Y222249D01*
X382342D01*
X381592Y221499D01*
Y218500D01*
X382342Y217750D01*
X383841D01*
X384591Y218500D01*
X389090Y217750D02*
X386091D01*
X389090Y220749D01*
Y221499D01*
X388340Y222249D01*
X386841D01*
X386091Y221499D01*
X321101Y218224D02*
X320183Y218754D01*
X318734Y218366D01*
X318204Y217448D01*
X318981Y214551D01*
X319899Y214021D01*
X321347Y214409D01*
X321877Y215327D01*
X325692Y215573D02*
X324528Y219918D01*
X322938Y217164D01*
X325834Y217940D01*
X324100Y287600D02*
Y292098D01*
X326349D01*
X327099Y291349D01*
Y289849D01*
X326349Y289100D01*
X324100D01*
X325600D02*
X327099Y287600D01*
X328598Y288350D02*
X329348Y287600D01*
X330848D01*
X331598Y288350D01*
Y291349D01*
X330848Y292098D01*
X329348D01*
X328598Y291349D01*
Y290599D01*
X329348Y289849D01*
X331598D01*
X306592Y152750D02*
Y157249D01*
X308841D01*
X309591Y156499D01*
Y154999D01*
X308841Y154250D01*
X306592D01*
X308092D02*
X309591Y152750D01*
X311091D02*
X312590D01*
X311841D01*
Y157249D01*
X311091Y156499D01*
X314840D02*
X315589Y157249D01*
X317089D01*
X317839Y156499D01*
Y153500D01*
X317089Y152750D01*
X315589D01*
X314840Y153500D01*
Y156499D01*
X346091Y155499D02*
X345341Y156249D01*
X343842D01*
X343092Y155499D01*
Y152500D01*
X343842Y151750D01*
X345341D01*
X346091Y152500D01*
X347591Y155499D02*
X348341Y156249D01*
X349840D01*
X350590Y155499D01*
Y154749D01*
X349840Y153999D01*
X349090D01*
X349840D01*
X350590Y153250D01*
Y152500D01*
X349840Y151750D01*
X348341D01*
X347591Y152500D01*
X395091Y162999D02*
X394341Y163749D01*
X392842D01*
X392092Y162999D01*
Y162249D01*
X392842Y161499D01*
X394341D01*
X395091Y160749D01*
Y160000D01*
X394341Y159250D01*
X392842D01*
X392092Y160000D01*
X396591Y163749D02*
Y159250D01*
X398090Y160749D01*
X399590Y159250D01*
Y163749D01*
X401089Y159250D02*
X402589D01*
X401839D01*
Y163749D01*
X401089Y162999D01*
X335092Y244748D02*
Y241000D01*
X335842Y240250D01*
X337341D01*
X338091Y241000D01*
Y244748D01*
X339591Y240250D02*
X341090D01*
X340340D01*
Y244748D01*
X339591Y243999D01*
X372100Y263598D02*
X375099Y259100D01*
Y263598D02*
X372100Y259100D01*
X376599D02*
X378098D01*
X377348D01*
Y263598D01*
X376599Y262849D01*
D13*
X380102Y255700D02*
X381482D01*
Y231300D02*
Y255700D01*
X367702Y231300D02*
X381482D01*
X367702D02*
Y255700D01*
X380102D01*
D14*
X316837Y316072D02*
X317499Y316722D01*
X318811Y316710D01*
X319461Y316048D01*
X319437Y313424D01*
X318775Y312775D01*
X317463Y312787D01*
X316813Y313449D01*
X316837Y316072D01*
X320743Y312757D02*
X320749Y313412D01*
X321405Y313406D01*
X321399Y312751D01*
X320743Y312757D01*
X325990Y312708D02*
X326026Y316644D01*
X324041Y314694D01*
X326664Y314670D01*
X288061Y267805D02*
X284125D01*
X286093Y265837D01*
Y268461D01*
X288061Y269773D02*
X287405D01*
Y270429D01*
X288061D01*
Y269773D01*
Y275676D02*
Y273053D01*
X285437Y275676D01*
X284781D01*
X284125Y275020D01*
Y273708D01*
X284781Y273053D01*
X364060Y313032D02*
Y316967D01*
X362092Y314999D01*
X364716D01*
X366028Y313032D02*
Y313687D01*
X366684D01*
Y313032D01*
X366028D01*
X369308D02*
X370620D01*
X369964D01*
Y316967D01*
X369308Y316311D01*
X351092D02*
X351748Y316967D01*
X353060D01*
X353716Y316311D01*
Y313687D01*
X353060Y313032D01*
X351748D01*
X351092Y313687D01*
Y316311D01*
X355028Y313032D02*
Y313687D01*
X355684D01*
Y313032D01*
X355028D01*
X358308Y316967D02*
X360931D01*
Y316311D01*
X358308Y313687D01*
Y313032D01*
X339092Y316311D02*
X339748Y316967D01*
X341060D01*
X341716Y316311D01*
Y313687D01*
X341060Y313032D01*
X339748D01*
X339092Y313687D01*
Y316311D01*
X343028Y313032D02*
Y313687D01*
X343684D01*
Y313032D01*
X343028D01*
X348932Y316967D02*
X347620Y316311D01*
X346308Y314999D01*
Y313687D01*
X346964Y313032D01*
X348276D01*
X348932Y313687D01*
Y314343D01*
X348276Y314999D01*
X346308D01*
X327800Y316080D02*
X328456Y316736D01*
X329768D01*
X330424Y316080D01*
Y313456D01*
X329768Y312800D01*
X328456D01*
X327800Y313456D01*
Y316080D01*
X331736Y312800D02*
Y313456D01*
X332392D01*
Y312800D01*
X331736D01*
X337639Y316736D02*
X335016D01*
Y314768D01*
X336327Y315424D01*
X336983D01*
X337639Y314768D01*
Y313456D01*
X336983Y312800D01*
X335671D01*
X335016Y313456D01*
X306092Y316311D02*
X306748Y316967D01*
X308060D01*
X308716Y316311D01*
Y313687D01*
X308060Y313032D01*
X306748D01*
X306092Y313687D01*
Y316311D01*
X310028Y313032D02*
Y313687D01*
X310684D01*
Y313032D01*
X310028D01*
X313308Y316311D02*
X313964Y316967D01*
X315276D01*
X315932Y316311D01*
Y315655D01*
X315276Y314999D01*
X314620D01*
X315276D01*
X315932Y314343D01*
Y313687D01*
X315276Y313032D01*
X313964D01*
X313308Y313687D01*
X294592Y316311D02*
X295248Y316967D01*
X296560D01*
X297216Y316311D01*
Y313687D01*
X296560Y313032D01*
X295248D01*
X294592Y313687D01*
Y316311D01*
X298528Y313032D02*
Y313687D01*
X299184D01*
Y313032D01*
X298528D01*
X304432D02*
X301808D01*
X304432Y315655D01*
Y316311D01*
X303776Y316967D01*
X302464D01*
X301808Y316311D01*
X337834Y173531D02*
Y177467D01*
X335866Y175499D01*
X338490D01*
X339802Y173531D02*
Y174187D01*
X340458D01*
Y173531D01*
X339802D01*
X343082Y176811D02*
X343738Y177467D01*
X345050D01*
X345706Y176811D01*
Y176155D01*
X345050Y175499D01*
X344394D01*
X345050D01*
X345706Y174843D01*
Y174187D01*
X345050Y173531D01*
X343738D01*
X343082Y174187D01*
X384560Y313032D02*
Y316967D01*
X382592Y314999D01*
X385216D01*
X386528Y313032D02*
Y313687D01*
X387184D01*
Y313032D01*
X386528D01*
X391776D02*
Y316967D01*
X389808Y314999D01*
X392431D01*
X373560Y313032D02*
Y316967D01*
X371592Y314999D01*
X374216D01*
X375528Y313032D02*
Y313687D01*
X376184D01*
Y313032D01*
X375528D01*
X381432Y316967D02*
X378808D01*
Y314999D01*
X380120Y315655D01*
X380776D01*
X381432Y314999D01*
Y313687D01*
X380776Y313032D01*
X379464D01*
X378808Y313687D01*
X288061Y255706D02*
Y257018D01*
Y256362D01*
X284125D01*
X284781Y255706D01*
X288061Y258986D02*
X287405D01*
Y259642D01*
X288061D01*
Y258986D01*
X284781Y262265D02*
X284125Y262922D01*
Y264233D01*
X284781Y264889D01*
X287405D01*
X288061Y264233D01*
Y262922D01*
X287405Y262265D01*
X284781D01*
X288061Y245574D02*
Y246886D01*
Y246230D01*
X284125D01*
X284781Y245574D01*
X288061Y248854D02*
X287405D01*
Y249510D01*
X288061D01*
Y248854D01*
Y252133D02*
Y253445D01*
Y252789D01*
X284125D01*
X284781Y252133D01*
X288061Y235443D02*
Y236755D01*
Y236099D01*
X284125D01*
X284781Y235443D01*
X288061Y238723D02*
X287405D01*
Y239379D01*
X288061D01*
Y238723D01*
Y244626D02*
Y242003D01*
X285437Y244626D01*
X284781D01*
X284125Y243970D01*
Y242658D01*
X284781Y242003D01*
X288061Y225311D02*
Y226623D01*
Y225967D01*
X284125D01*
X284781Y225311D01*
X288061Y228591D02*
X287405D01*
Y229247D01*
X288061D01*
Y228591D01*
X284781Y231871D02*
X284125Y232526D01*
Y233838D01*
X284781Y234494D01*
X285437D01*
X286093Y233838D01*
Y233183D01*
Y233838D01*
X286749Y234494D01*
X287405D01*
X288061Y233838D01*
Y232526D01*
X287405Y231871D01*
X288061Y215000D02*
Y216312D01*
Y215656D01*
X284125D01*
X284781Y215000D01*
X288061Y218280D02*
X287405D01*
Y218936D01*
X288061D01*
Y218280D01*
Y223527D02*
X284125D01*
X286093Y221560D01*
Y224183D01*
X293300Y173800D02*
X294612D01*
X293956D01*
Y177736D01*
X293300Y177080D01*
X296580Y173800D02*
Y174456D01*
X297236D01*
Y173800D01*
X296580D01*
X302483Y177736D02*
X299859D01*
Y175768D01*
X301171Y176424D01*
X301827D01*
X302483Y175768D01*
Y174456D01*
X301827Y173800D01*
X300516D01*
X299859Y174456D01*
X303300Y173800D02*
X304612D01*
X303956D01*
Y177736D01*
X303300Y177080D01*
X306580Y173800D02*
Y174456D01*
X307236D01*
Y173800D01*
X306580D01*
X312483Y177736D02*
X311172Y177080D01*
X309859Y175768D01*
Y174456D01*
X310515Y173800D01*
X311827D01*
X312483Y174456D01*
Y175112D01*
X311827Y175768D01*
X309859D01*
X313800Y173800D02*
X315112D01*
X314456D01*
Y177736D01*
X313800Y177080D01*
X317080Y173800D02*
Y174456D01*
X317736D01*
Y173800D01*
X317080D01*
X320359Y177736D02*
X322983D01*
Y177080D01*
X320359Y174456D01*
Y173800D01*
X324592Y176811D02*
X325248Y177467D01*
X326560D01*
X327216Y176811D01*
Y176155D01*
X326560Y175499D01*
X325904D01*
X326560D01*
X327216Y174843D01*
Y174187D01*
X326560Y173531D01*
X325248D01*
X324592Y174187D01*
X328528Y173531D02*
Y174187D01*
X329184D01*
Y173531D01*
X328528D01*
X331808Y176811D02*
X332464Y177467D01*
X333776D01*
X334432Y176811D01*
Y174187D01*
X333776Y173531D01*
X332464D01*
X331808Y174187D01*
Y176811D01*
X347321D02*
X347977Y177467D01*
X349289D01*
X349945Y176811D01*
Y176155D01*
X349289Y175499D01*
X348633D01*
X349289D01*
X349945Y174843D01*
Y174187D01*
X349289Y173531D01*
X347977D01*
X347321Y174187D01*
X351257Y173531D02*
Y174187D01*
X351913D01*
Y173531D01*
X351257D01*
X354537D02*
X355849D01*
X355193D01*
Y177467D01*
X354537Y176811D01*
X358595D02*
X359251Y177467D01*
X360563D01*
X361219Y176811D01*
Y176155D01*
X360563Y175499D01*
X359907D01*
X360563D01*
X361219Y174843D01*
Y174187D01*
X360563Y173531D01*
X359251D01*
X358595Y174187D01*
X362531Y173531D02*
Y174187D01*
X363187D01*
Y173531D01*
X362531D01*
X368435D02*
X365811D01*
X368435Y176155D01*
Y176811D01*
X367779Y177467D01*
X366467D01*
X365811Y176811D01*
X369870D02*
X370526Y177467D01*
X371838D01*
X372494Y176811D01*
Y176155D01*
X371838Y175499D01*
X371182D01*
X371838D01*
X372494Y174843D01*
Y174187D01*
X371838Y173531D01*
X370526D01*
X369870Y174187D01*
X373806Y173531D02*
Y174187D01*
X374462D01*
Y173531D01*
X373806D01*
X377086Y176811D02*
X377742Y177467D01*
X379054D01*
X379710Y176811D01*
Y176155D01*
X379054Y175499D01*
X378398D01*
X379054D01*
X379710Y174843D01*
Y174187D01*
X379054Y173531D01*
X377742D01*
X377086Y174187D01*
X381144Y176811D02*
X381800Y177467D01*
X383112D01*
X383768Y176811D01*
Y176155D01*
X383112Y175499D01*
X382456D01*
X383112D01*
X383768Y174843D01*
Y174187D01*
X383112Y173531D01*
X381800D01*
X381144Y174187D01*
X385080Y173531D02*
Y174187D01*
X385736D01*
Y173531D01*
X385080D01*
X390328D02*
Y177467D01*
X388360Y175499D01*
X390984D01*
X392598Y176811D02*
X393254Y177467D01*
X394566D01*
X395222Y176811D01*
Y176155D01*
X394566Y175499D01*
X393910D01*
X394566D01*
X395222Y174843D01*
Y174187D01*
X394566Y173531D01*
X393254D01*
X392598Y174187D01*
X396534Y173531D02*
Y174187D01*
X397190D01*
Y173531D01*
X396534D01*
X402437Y177467D02*
X399814D01*
Y175499D01*
X401126Y176155D01*
X401782D01*
X402437Y175499D01*
Y174187D01*
X401782Y173531D01*
X400470D01*
X399814Y174187D01*
X405903Y194500D02*
X406559Y193844D01*
Y192532D01*
X405903Y191876D01*
X405247D01*
X404592Y192532D01*
Y193188D01*
Y192532D01*
X403936Y191876D01*
X403280D01*
X402624Y192532D01*
Y193844D01*
X403280Y194500D01*
X402624Y190564D02*
X403280D01*
Y189908D01*
X402624D01*
Y190564D01*
X406559Y184661D02*
X405903Y185973D01*
X404592Y187285D01*
X403280D01*
X402624Y186628D01*
Y185317D01*
X403280Y184661D01*
X403936D01*
X404592Y185317D01*
Y187285D01*
X405903Y206127D02*
X406559Y205471D01*
Y204159D01*
X405903Y203503D01*
X405247D01*
X404592Y204159D01*
Y204815D01*
Y204159D01*
X403936Y203503D01*
X403280D01*
X402624Y204159D01*
Y205471D01*
X403280Y206127D01*
X402624Y202191D02*
X403280D01*
Y201535D01*
X402624D01*
Y202191D01*
X406559Y198911D02*
Y196288D01*
X405903D01*
X403280Y198911D01*
X402624D01*
Y215965D02*
X406559D01*
X404592Y217933D01*
Y215309D01*
X402624Y213997D02*
X403280D01*
Y213341D01*
X402624D01*
Y213997D01*
X405903Y210718D02*
X406559Y210062D01*
Y208750D01*
X405903Y208094D01*
X403280D01*
X402624Y208750D01*
Y210062D01*
X403280Y210718D01*
X405903D01*
X402624Y226936D02*
Y229560D01*
X405247Y226936D01*
X405903D01*
X406559Y227592D01*
Y228904D01*
X405903Y229560D01*
X402624Y225624D02*
X403280D01*
Y224968D01*
X402624D01*
Y225624D01*
X405903Y222344D02*
X406559Y221689D01*
Y220377D01*
X405903Y219721D01*
X403280D01*
X402624Y220377D01*
Y221689D01*
X403280Y222344D01*
X405903D01*
X402624Y238563D02*
Y241187D01*
X405247Y238563D01*
X405903D01*
X406559Y239219D01*
Y240531D01*
X405903Y241187D01*
X402624Y237251D02*
X403280D01*
Y236595D01*
X402624D01*
Y237251D01*
Y233972D02*
Y232660D01*
Y233315D01*
X406559D01*
X405903Y233972D01*
X402624Y250189D02*
Y252813D01*
X405247Y250189D01*
X405903D01*
X406559Y250845D01*
Y252157D01*
X405903Y252813D01*
X402624Y248877D02*
X403280D01*
Y248221D01*
X402624D01*
Y248877D01*
Y242974D02*
Y245598D01*
X405247Y242974D01*
X405903D01*
X406559Y243630D01*
Y244942D01*
X405903Y245598D01*
X402624Y261816D02*
Y264440D01*
X405247Y261816D01*
X405903D01*
X406559Y262472D01*
Y263784D01*
X405903Y264440D01*
X402624Y260504D02*
X403280D01*
Y259848D01*
X402624D01*
Y260504D01*
X405903Y257224D02*
X406559Y256569D01*
Y255257D01*
X405903Y254601D01*
X405247D01*
X404592Y255257D01*
Y255913D01*
Y255257D01*
X403936Y254601D01*
X403280D01*
X402624Y255257D01*
Y256569D01*
X403280Y257224D01*
X402624Y273623D02*
Y276247D01*
X405247Y273623D01*
X405903D01*
X406559Y274279D01*
Y275591D01*
X405903Y276247D01*
X402624Y272311D02*
X403280D01*
Y271655D01*
X402624D01*
Y272311D01*
Y267064D02*
X406559D01*
X404592Y269032D01*
Y266408D01*
X402624Y285249D02*
Y287873D01*
X405247Y285249D01*
X405903D01*
X406559Y285905D01*
Y287217D01*
X405903Y287873D01*
X402624Y283937D02*
X403280D01*
Y283281D01*
X402624D01*
Y283937D01*
X406559Y278034D02*
Y280658D01*
X404592D01*
X405247Y279346D01*
Y278690D01*
X404592Y278034D01*
X403280D01*
X402624Y278690D01*
Y280001D01*
X403280Y280658D01*
X402624Y296876D02*
Y299500D01*
X405247Y296876D01*
X405903D01*
X406559Y297532D01*
Y298844D01*
X405903Y299500D01*
X402624Y295564D02*
X403280D01*
Y294908D01*
X402624D01*
Y295564D01*
X406559Y289661D02*
X405903Y290973D01*
X404592Y292284D01*
X403280D01*
X402624Y291629D01*
Y290317D01*
X403280Y289661D01*
X403936D01*
X404592Y290317D01*
Y292284D01*
X396716Y313032D02*
X394092D01*
X396716Y315655D01*
Y316311D01*
X396060Y316967D01*
X394748D01*
X394092Y316311D01*
X398028Y313032D02*
Y313687D01*
X398684D01*
Y313032D01*
X398028D01*
X401308Y316967D02*
X403932D01*
Y316311D01*
X401308Y313687D01*
Y313032D01*
X284781Y277759D02*
X284125Y278415D01*
Y279727D01*
X284781Y280383D01*
X287405D01*
X288061Y279727D01*
Y278415D01*
X287405Y277759D01*
X284781D01*
X288061Y281695D02*
X287405D01*
Y282351D01*
X288061D01*
Y281695D01*
X284781Y284975D02*
X284125Y285630D01*
Y286942D01*
X284781Y287598D01*
X287405D01*
X288061Y286942D01*
Y285630D01*
X287405Y284975D01*
X284781D01*
Y289500D02*
X284125Y290156D01*
Y291468D01*
X284781Y292124D01*
X287405D01*
X288061Y291468D01*
Y290156D01*
X287405Y289500D01*
X284781D01*
X288061Y293436D02*
X287405D01*
Y294092D01*
X288061D01*
Y293436D01*
Y296715D02*
Y298027D01*
Y297372D01*
X284125D01*
X284781Y296715D01*
X280103Y205323D02*
X280759Y205329D01*
X281408Y205992D01*
X281373Y209272D01*
X279405Y209251D01*
X278756Y208588D01*
X278770Y207276D01*
X279433Y206627D01*
X281401Y206648D01*
X282713Y206662D02*
X282685Y209286D01*
X284653Y209307D01*
X285316Y208658D01*
X285337Y206690D01*
X289230Y210668D02*
X289272Y206732D01*
X287304Y206711D01*
X286641Y207360D01*
X286627Y208672D01*
X287276Y209335D01*
X289244Y209356D01*
X278800Y195424D02*
X280112Y192800D01*
X281424Y195424D01*
X285360D02*
X283392D01*
X282736Y194768D01*
Y193456D01*
X283392Y192800D01*
X285360D01*
X289295Y195424D02*
X287327D01*
X286671Y194768D01*
Y193456D01*
X287327Y192800D01*
X289295D01*
X251300Y225924D02*
X252612Y223300D01*
X253924Y225924D01*
X257859D02*
X255892D01*
X255236Y225268D01*
Y223956D01*
X255892Y223300D01*
X257859D01*
X261795Y225924D02*
X259827D01*
X259172Y225268D01*
Y223956D01*
X259827Y223300D01*
X261795D01*
X253112Y251800D02*
X253768D01*
X254424Y252456D01*
Y255736D01*
X252456D01*
X251800Y255080D01*
Y253768D01*
X252456Y253112D01*
X254424D01*
X255736D02*
Y255736D01*
X257704D01*
X258360Y255080D01*
Y253112D01*
X262295Y257048D02*
Y253112D01*
X260327D01*
X259671Y253768D01*
Y255080D01*
X260327Y255736D01*
X262295D01*
X252956Y243580D02*
Y242924D01*
X252300D01*
X253612D01*
X252956D01*
Y240956D01*
X253612Y240300D01*
X255580Y242924D02*
X258204Y240300D01*
X256892Y241612D01*
X258204Y242924D01*
X255580Y240300D01*
X262139Y244236D02*
Y240300D01*
X260172D01*
X259516Y240956D01*
Y242268D01*
X260172Y242924D01*
X262139D01*
X251800Y235424D02*
Y232800D01*
Y234112D01*
X252456Y234768D01*
X253112Y235424D01*
X253768D01*
X255736D02*
X258360Y232800D01*
X257048Y234112D01*
X258360Y235424D01*
X255736Y232800D01*
X262295Y236736D02*
Y232800D01*
X260327D01*
X259671Y233456D01*
Y234768D01*
X260327Y235424D01*
X262295D01*
X315592Y193155D02*
Y190532D01*
Y191843D01*
X316248Y192499D01*
X316904Y193155D01*
X317560D01*
X319528D02*
X322152Y190532D01*
X320840Y191843D01*
X322152Y193155D01*
X319528Y190532D01*
X326087Y194467D02*
Y190532D01*
X324120D01*
X323464Y191187D01*
Y192499D01*
X324120Y193155D01*
X326087D01*
X328711Y190532D02*
X327399Y191843D01*
Y193155D01*
X328711Y194467D01*
X330679Y193811D02*
X331335Y194467D01*
X332647D01*
X333303Y193811D01*
Y193155D01*
X332647Y192499D01*
X331991D01*
X332647D01*
X333303Y191843D01*
Y191187D01*
X332647Y190532D01*
X331335D01*
X330679Y191187D01*
X334615Y190532D02*
Y191187D01*
X335271D01*
Y190532D01*
X334615D01*
X337895Y193811D02*
X338551Y194467D01*
X339862D01*
X340518Y193811D01*
Y191187D01*
X339862Y190532D01*
X338551D01*
X337895Y191187D01*
Y193811D01*
X341830Y190532D02*
X343142Y191843D01*
Y193155D01*
X341830Y194467D01*
X348248Y193311D02*
Y192655D01*
X347592D01*
X348904D01*
X348248D01*
Y190687D01*
X348904Y190032D01*
X350872Y192655D02*
X353496Y190032D01*
X352184Y191343D01*
X353496Y192655D01*
X350872Y190032D01*
X357432Y193967D02*
Y190032D01*
X355464D01*
X354808Y190687D01*
Y191999D01*
X355464Y192655D01*
X357432D01*
X360055Y190032D02*
X358743Y191343D01*
Y192655D01*
X360055Y193967D01*
X362023Y193311D02*
X362679Y193967D01*
X363991D01*
X364647Y193311D01*
Y192655D01*
X363991Y191999D01*
X363335D01*
X363991D01*
X364647Y191343D01*
Y190687D01*
X363991Y190032D01*
X362679D01*
X362023Y190687D01*
X365959Y190032D02*
Y190687D01*
X366615D01*
Y190032D01*
X365959D01*
X369239D02*
X370551D01*
X369895D01*
Y193967D01*
X369239Y193311D01*
X372518Y190032D02*
X373830Y191343D01*
Y192655D01*
X372518Y193967D01*
M02*
